# xmcd CD database file
# Copyright (C) 1997 Ti Kan
# 
# Track frame offsets:
#     150
#     14008
#     26233
#     39958
#     54883
#     68083
#     77008
#     106633
#     154640
#     174283
#     197233
#     211030
#     225808
#     265493
#     282733
# 
# Disc length: 3971 seconds
# 
# Revision: 1
# Processed by: cddbd v1.4b41PL1 Copyright (c) Steve Scherf et al.
# Submitted via: DiscPlay 4.0.3
# 
DISCID=bc0f810f
DTITLE=Joe Turner And T-Bone Walker - Bosses Of The Blues - Vol. 1
DYEAR=1900
DGENRE=
TTITLE0=Shake Rattle And Roll
TTITLE1=Lonesome Train
TTITLE2=Corinne Corinna
TTITLE3=How Long, How Long Blues
TTITLE4=Careless Love
TTITLE5=Two Loves Have I
TTITLE6=Honey Hush
TTITLE7=Plastic Man
TTITLE8=Every Day I Have The Blues
TTITLE9=Vietnam
TTITLE10=Shake It Baby
TTITLE11=Cold, Cold Feeling
TTITLE12=T-Bone Blues Special
TTITLE13=For B.B. King
TTITLE14=Sail On
EXTD=
EXTT0=
EXTT1=
EXTT2=
EXTT3=
EXTT4=
EXTT5=
EXTT6=
EXTT7=
EXTT8=
EXTT9=
EXTT10=
EXTT11=
EXTT12=
EXTT13=
EXTT14=
PLAYORDER=
